<svg  viewBox="0 0 215 35" xmlns="http://www.w3.org/2000/svg"><g style="display:inline"><path style="display:inline;fill:#276bc0;fill-opacity:1;stroke-width:.193824" d="M0 0h63v35H0z"></path><g style="font-weight:700;font-size:24.6069px;font-family:'Gill Sans';-inkscape-font-specification:'Gill Sans, Bold';fill:#04a;stroke-width:.318193"><path d="M27.823 23.055H22.8v-9.648l-4.53 5.587h-.396l-4.541-5.587v9.648H8.454V6.402h4.554l5.119 6.248 5.142-6.248h4.554zM48.32 6.402l-7.509 16.87h-3.316L30.13 6.402h5.226l3.809 9.612 3.917-9.612zM68.686 23.055h-4.47l-8.638-9.275v9.275h-4.975V6.402h4.458l8.615 9.228V6.402h5.01z" style="fill:#fff" transform="scale(.83152 1.20262)"></path></g><g style="font-weight:700;font-size:24.6069px;font-family:'Gill Sans';-inkscape-font-specification:'Gill Sans, Bold';display:inline;fill:#276bc0;stroke-width:.318193"><path d="M82.191 27.798h-4.486l-1.089-3.554q-.6-1.951-1.079-2.847-.48-.91-.939-1.156-.45-.26-1.169-.26h-.47v7.817h-4.176V7.771h7.104q1.718 0 2.817 1.012 1.1 1.011 1.579 2.456.49 1.445.49 2.745 0 1.518-.41 2.572-.4 1.04-.85 1.518-.449.477-1.009.91.67.564 1.1 1.344.44.766 1.188 3.12zM76.516 14.1q0-1.387-.63-1.936-.629-.55-2.047-.55h-.88v4.827h.9q1.528 0 2.088-.477.57-.491.57-1.864zM94.53 27.798H84.09V7.771h10.27v4.017h-6.095v3.67h5.815v4.032h-5.815v4.277h6.265zM109.316 14.071q0 1.113-.27 2.182-.26 1.055-.849 1.98-.59.91-1.598 1.488-1 .563-2.358.563h-2.738v7.514h-4.176V7.771h6.914q1.358 0 2.358.578 1.009.578 1.598 1.503.59.925.85 2.008.269 1.084.269 2.211zm-4.256.03q0-1.431-.59-1.952-.579-.534-2.088-.534h-.879v4.826h.9q1.038 0 1.598-.188t.81-.694q.249-.505.249-1.459zM126.45 17.77q0 2.803-.899 5.159-.89 2.355-2.657 3.742-1.769 1.387-4.307 1.387-2.567 0-4.346-1.445-1.778-1.445-2.647-3.8-.86-2.355-.86-5.043 0-2.702.86-5.043.86-2.355 2.638-3.785 1.788-1.445 4.355-1.445 1.919 0 3.417.823 1.509.824 2.478 2.24.97 1.402 1.469 3.28.5 1.864.5 3.93zm-4.256 0q0-1.127-.23-2.052-.23-.939-.699-1.618-.46-.694-1.129-1.07-.67-.39-1.549-.39-1.678 0-2.637 1.417-.96 1.416-.96 3.713 0 2.298.96 3.728.969 1.416 2.637 1.416 1.15 0 1.959-.65.809-.665 1.229-1.82.42-1.171.42-2.674zM138.729 21.975q0 1.879-.67 3.251-.659 1.373-1.848 2.11-1.189.722-2.727.722-.43 0-1.06-.086-.619-.073-1.658-.434-1.029-.361-2.148-1.07v-4.912q1.05.94 2.058 1.56 1.02.622 2.178.622 1.07 0 1.379-.506.32-.52.32-.968 0-.81-.54-1.358-.54-.564-1.568-1.156-1.14-.694-1.998-1.503-.86-.824-1.41-2.052-.539-1.228-.539-2.904 0-1.618.55-2.919.55-1.315 1.678-2.095 1.13-.78 2.758-.78 1.159 0 2.138.332.989.318 1.628.722.64.405.88.636v4.696q-.85-.881-1.899-1.575-1.039-.693-2.228-.693-.779 0-1.129.433-.35.434-.35 1.07 0 .592.35 1.025.35.434 1.25 1.055 1.598 1.084 2.557 1.95.959.868 1.498 2.01.55 1.126.55 2.817zM145.762 27.798h-4.176V7.771h4.176zM162.537 12.64h-5.075v15.158h-4.167V12.641h-5.075V7.77h14.317zM178.622 17.77q0 2.803-.9 5.159-.888 2.355-2.657 3.742-1.768 1.387-4.306 1.387-2.567 0-4.346-1.445-1.778-1.445-2.647-3.8-.86-2.355-.86-5.043 0-2.702.86-5.043.859-2.355 2.637-3.785 1.789-1.445 4.356-1.445 1.919 0 3.417.823 1.509.824 2.478 2.24.969 1.402 1.469 3.28.5 1.864.5 3.93zm-4.256 0q0-1.127-.23-2.052-.23-.939-.7-1.618-.459-.694-1.128-1.07-.67-.39-1.549-.39-1.678 0-2.637 1.417-.96 1.416-.96 3.713 0 2.298.96 3.728.969 1.416 2.637 1.416 1.15 0 1.959-.65.809-.665 1.228-1.82.42-1.171.42-2.674zM194.627 27.798h-4.486l-1.089-3.554q-.599-1.951-1.079-2.847-.48-.91-.939-1.156-.45-.26-1.169-.26h-.47v7.817h-4.175V7.771h7.103q1.719 0 2.818 1.012 1.098 1.011 1.578 2.456.49 1.445.49 2.745 0 1.518-.41 2.572-.4 1.04-.85 1.518-.449.477-1.008.91.67.564 1.099 1.344.44.766 1.189 3.12zM188.953 14.1q0-1.387-.63-1.936-.63-.55-2.048-.55h-.88v4.827h.9q1.529 0 2.088-.477.57-.491.57-1.864zM209.444 7.771l-5.425 10.852v9.175h-4.177v-9.06l-5.524-10.967h4.336l3.177 6.3 3.187-6.3z"></path></g></g></svg>